<?xml version="1.0" encoding="utf-8"?>
<!-- Generator: Adobe Illustrator 22.1.0, SVG Export Plug-In . SVG Version: 6.00 Build 0)  -->
<svg version="1.1" id="Layer_1" xmlns="http://www.w3.org/2000/svg" xmlns:xlink="http://www.w3.org/1999/xlink" x="0px" y="0px"
	 viewBox="0 0 200 200" style="enable-background:new 0 0 200 200;" xml:space="preserve">
<style type="text/css">
	.st0{fill:#FFFFFF;}
</style>
<g>
	<path class="st0" d="M154.8,101.1c-2.6-4.5-26.9-46.1-36.8-63.6c-6.8-11.9-2.7-25.5,9-31.2c10.3-5,22.3-1.4,28.4,8.7
		c6,10.1,9.7,21.2,10.9,32.8c1.7,16.3-0.7,32-7.9,46.9C157.5,96.5,156.4,98.3,154.8,101.1z"/>
	<path class="st0" d="M82.2,78.1c-2.5,4.5-26.4,46.4-36.5,63.8c-6.9,11.8-20.6,15.2-31.5,7.9c-9.5-6.4-12.4-18.6-6.7-28.9
		c5.7-10.3,13.4-19,22.9-25.9c13.2-9.7,28.1-15.5,44.5-16.7C77,78.1,79,78.2,82.2,78.1z"/>
	<path class="st0" d="M99.2,152.9c5.2-0.1,53.4-0.5,73.5-0.5c13.7,0,23.5,10.2,22.7,23.3c-0.7,11.4-9.8,20.1-21.6,20.3
		c-11.8,0.3-23.2-2.1-33.9-6.8c-15-6.6-27.5-16.5-36.8-30.1C101.8,157.4,100.8,155.6,99.2,152.9z"/>
	<path class="st0" d="M90.4,120.7c6.9-11.9,13.4-23.2,20.4-35.4c0.5-0.9,1.9-1,2.5,0c6.9,12,13.5,23.4,20.4,35.4
		c0.5,0.9-0.1,2.1-1.2,2.1l-40.8,0C90.6,122.8,89.9,121.6,90.4,120.7z"/>
</g>
</svg>
