<?xml version="1.0" encoding="utf-8"?>
<!-- Generator: Adobe Illustrator 22.1.0, SVG Export Plug-In . SVG Version: 6.00 Build 0)  -->
<svg version="1.1" id="Layer_1" xmlns="http://www.w3.org/2000/svg" xmlns:xlink="http://www.w3.org/1999/xlink" x="0px" y="0px"
	 viewBox="0 0 50 50" style="enable-background:new 0 0 50 50;" xml:space="preserve">
<style type="text/css">
	.st0{fill-rule:evenodd;clip-rule:evenodd;fill:#FFFFFF;}
	.st1{fill:#FFFFFF;}
</style>
<g>
	<g>
		<path class="st1" d="M47.2,0H2.8C1.2,0,0,1.2,0,2.8v45.7C0,49.3,0.7,50,1.5,50h25.2V30.6h-6.5v-7.6h6.5v-5.6c0-6.5,3.9-10,9.7-10
			c2.8,0,5.1,0.2,5.8,0.3v6.7l-4,0c-3.1,0-3.7,1.5-3.7,3.7v4.8H42l-1,7.5h-6.5V50h14c0.8,0,1.5-0.7,1.5-1.5V2.8
			C50,1.2,48.8,0,47.2,0L47.2,0z M47.2,0"/>
	</g>
</g>
</svg>
