<?xml version="1.0" encoding="utf-8"?>
<!-- Generator: Adobe Illustrator 22.1.0, SVG Export Plug-In . SVG Version: 6.00 Build 0)  -->
<svg version="1.1" id="Layer_1" xmlns="http://www.w3.org/2000/svg" xmlns:xlink="http://www.w3.org/1999/xlink" x="0px" y="0px"
	 viewBox="0 0 50 50" style="enable-background:new 0 0 50 50;" xml:space="preserve">
<style type="text/css">
	.st0{fill-rule:evenodd;clip-rule:evenodd;fill:#FFFFFF;}
	.st1{fill:#FFFFFF;}
</style>
<g>
	<path class="st0" d="M0,2.5v45C0,48.9,1.1,50,2.5,50h45c1.4,0,2.5-1.1,2.5-2.5v-45C50,1.1,48.9,0,47.5,0h-45C1.1,0,0,1.1,0,2.5z
		 M41.7,33.2c-0.4,1.8-1.9,3.2-3.7,3.4c-4.3,0.5-8.6,0.5-13,0.5c-4.3,0-8.7,0-13-0.5c-1.8-0.2-3.3-1.6-3.7-3.4
		c-0.6-2.6-0.6-5.5-0.6-8.2c0-2.7,0-5.6,0.6-8.2c0.4-1.8,1.9-3.2,3.7-3.4c4.3-0.5,8.6-0.5,13-0.5c4.3,0,8.7,0,13,0.5
		c1.8,0.2,3.3,1.6,3.7,3.4c0.6,2.6,0.6,5.5,0.6,8.2C42.3,27.7,42.3,30.6,41.7,33.2L41.7,33.2z M41.7,33.2"/>
	<path class="st0" d="M20.5,30.4c3.7-1.9,7.3-3.8,11-5.7c-3.7-1.9-7.3-3.8-11-5.7V30.4z M20.5,30.4"/>
</g>
</svg>
