<?xml version="1.0" encoding="utf-8"?>
<!-- Generator: Adobe Illustrator 22.1.0, SVG Export Plug-In . SVG Version: 6.00 Build 0)  -->
<svg version="1.1" id="Layer_1" xmlns="http://www.w3.org/2000/svg" xmlns:xlink="http://www.w3.org/1999/xlink" x="0px" y="0px"
	 viewBox="0 0 50 50" style="enable-background:new 0 0 50 50;" xml:space="preserve">
<style type="text/css">
	.st0{fill-rule:evenodd;clip-rule:evenodd;fill:#FFFFFF;}
	.st1{fill:#FFFFFF;}
</style>
<g>
	<path class="st1" d="M47.3,0H2.7C1.2,0,0,1.2,0,2.7v44.7C0,48.8,1.2,50,2.7,50h44.7c1.5,0,2.7-1.2,2.7-2.7V2.7
		C50,1.2,48.8,0,47.3,0L47.3,0z M45.7,12.4c-1.1,1.7-2.5,3.2-4.2,4.3c0,0.3,0,0.7,0,1c0,11.9-9,24.1-24.1,24.1
		c-4.6,0-9.1-1.3-13-3.8c-0.1-0.1-0.1-0.2-0.1-0.2c0-0.1,0.1-0.1,0.2-0.1c0.7,0.1,1.3,0.1,2,0.1c3.6,0,7-1.1,9.9-3.2
		c-3.5-0.3-6.4-2.6-7.5-6c0-0.1,0-0.1,0-0.2c0-0.1,0.1-0.1,0.2-0.1c1,0.2,1.9,0.2,2.9,0c-3.6-1.1-6.1-4.4-6.1-8.2v-0.1
		c0-0.1,0-0.1,0.1-0.2c0.1,0,0.1,0,0.2,0c0.9,0.5,2,0.8,3,1c-2-1.6-3.2-4.1-3.2-6.7c0-1.5,0.4-3,1.2-4.3c0-0.1,0.1-0.1,0.2-0.1
		c0.1,0,0.1,0,0.2,0.1c4.2,5.1,10.3,8.3,16.9,8.7c-0.1-0.6-0.2-1.1-0.2-1.7c0-4.8,3.9-8.6,8.6-8.6c2.3,0,4.6,1,6.2,2.6
		c1.8-0.4,3.6-1,5.2-2c0.1,0,0.2,0,0.2,0c0.1,0.1,0.1,0.1,0.1,0.2c-0.5,1.7-1.6,3.2-3,4.3c1.3-0.2,2.6-0.6,3.9-1.2
		c0.1,0,0.2,0,0.2,0.1C45.7,12.2,45.7,12.3,45.7,12.4L45.7,12.4z M45.7,12.4"/>
</g>
</svg>
