<?xml version="1.0" encoding="utf-8"?>
<!-- Generator: Adobe Illustrator 22.1.0, SVG Export Plug-In . SVG Version: 6.00 Build 0)  -->
<svg version="1.1" id="Layer_1" xmlns="http://www.w3.org/2000/svg" xmlns:xlink="http://www.w3.org/1999/xlink" x="0px" y="0px"
	 viewBox="0 0 50 50" style="enable-background:new 0 0 50 50;" xml:space="preserve">
<style type="text/css">
	.st0{fill-rule:evenodd;clip-rule:evenodd;fill:#FFFFFF;}
	.st1{fill:#FFFFFF;}
</style>
<g>
	<path class="st1" d="M25,20c-2.7,0-5,2.2-5,5c0,2.7,2.2,5,5,5c2.7,0,5-2.2,5-5C30,22.3,27.7,20,25,20L25,20z M25,20
		c-2.7,0-5,2.2-5,5c0,2.7,2.2,5,5,5c2.7,0,5-2.2,5-5C30,22.3,27.7,20,25,20L25,20z M33.3,11.9H16.7c-2.6,0-4.8,2.2-4.8,4.8v16.6
		c0,2.6,2.2,4.8,4.8,4.8h16.6c2.6,0,4.8-2.2,4.8-4.8V16.7C38.1,14.1,35.9,11.9,33.3,11.9L33.3,11.9z M25,33.6
		c-4.7,0-8.6-3.9-8.6-8.6c0-4.7,3.9-8.6,8.6-8.6c4.7,0,8.6,3.9,8.6,8.6C33.6,29.7,29.7,33.6,25,33.6L25,33.6z M33.9,18.2
		c-1.1,0-2-0.9-2-2c0-1.1,0.9-2,2-2c1.1,0,2,0.9,2,2C35.9,17.3,35,18.2,33.9,18.2L33.9,18.2z M25,20c-2.7,0-5,2.2-5,5
		c0,2.7,2.2,5,5,5c2.7,0,5-2.2,5-5C30,22.3,27.7,20,25,20L25,20z M33.3,11.9H16.7c-2.6,0-4.8,2.2-4.8,4.8v16.6
		c0,2.6,2.2,4.8,4.8,4.8h16.6c2.6,0,4.8-2.2,4.8-4.8V16.7C38.1,14.1,35.9,11.9,33.3,11.9L33.3,11.9z M25,33.6
		c-4.7,0-8.6-3.9-8.6-8.6c0-4.7,3.9-8.6,8.6-8.6c4.7,0,8.6,3.9,8.6,8.6C33.6,29.7,29.7,33.6,25,33.6L25,33.6z M33.9,18.2
		c-1.1,0-2-0.9-2-2c0-1.1,0.9-2,2-2c1.1,0,2,0.9,2,2C35.9,17.3,35,18.2,33.9,18.2L33.9,18.2z M25,20c-2.7,0-5,2.2-5,5
		c0,2.7,2.2,5,5,5c2.7,0,5-2.2,5-5C30,22.3,27.7,20,25,20L25,20z M0,2.5v45C0,48.9,1.1,50,2.5,50h45c1.4,0,2.5-1.1,2.5-2.5v-45
		C50,1.1,48.9,0,47.5,0h-45C1.1,0,0,1.1,0,2.5z M41.7,33.3c0,4.7-3.8,8.4-8.4,8.4H16.7c-4.7,0-8.4-3.8-8.4-8.4V16.7
		c0-4.7,3.8-8.4,8.4-8.4h16.6c4.7,0,8.4,3.8,8.4,8.4V33.3z M33.3,11.9H16.7c-2.6,0-4.8,2.2-4.8,4.8v16.6c0,2.6,2.2,4.8,4.8,4.8h16.6
		c2.6,0,4.8-2.2,4.8-4.8V16.7C38.1,14.1,35.9,11.9,33.3,11.9L33.3,11.9z M25,33.6c-4.7,0-8.6-3.9-8.6-8.6c0-4.7,3.9-8.6,8.6-8.6
		c4.7,0,8.6,3.9,8.6,8.6C33.6,29.7,29.7,33.6,25,33.6L25,33.6z M33.9,18.2c-1.1,0-2-0.9-2-2c0-1.1,0.9-2,2-2c1.1,0,2,0.9,2,2
		C35.9,17.3,35,18.2,33.9,18.2L33.9,18.2z M25,20c-2.7,0-5,2.2-5,5c0,2.7,2.2,5,5,5c2.7,0,5-2.2,5-5C30,22.3,27.7,20,25,20L25,20z
		 M25,20c-2.7,0-5,2.2-5,5c0,2.7,2.2,5,5,5c2.7,0,5-2.2,5-5C30,22.3,27.7,20,25,20L25,20z M25,20c-2.7,0-5,2.2-5,5c0,2.7,2.2,5,5,5
		c2.7,0,5-2.2,5-5C30,22.3,27.7,20,25,20L25,20z M33.3,11.9H16.7c-2.6,0-4.8,2.2-4.8,4.8v16.6c0,2.6,2.2,4.8,4.8,4.8h16.6
		c2.6,0,4.8-2.2,4.8-4.8V16.7C38.1,14.1,35.9,11.9,33.3,11.9L33.3,11.9z M25,33.6c-4.7,0-8.6-3.9-8.6-8.6c0-4.7,3.9-8.6,8.6-8.6
		c4.7,0,8.6,3.9,8.6,8.6C33.6,29.7,29.7,33.6,25,33.6L25,33.6z M33.9,18.2c-1.1,0-2-0.9-2-2c0-1.1,0.9-2,2-2c1.1,0,2,0.9,2,2
		C35.9,17.3,35,18.2,33.9,18.2L33.9,18.2z M25,20c-2.7,0-5,2.2-5,5c0,2.7,2.2,5,5,5c2.7,0,5-2.2,5-5C30,22.3,27.7,20,25,20L25,20z
		 M25,20c-2.7,0-5,2.2-5,5c0,2.7,2.2,5,5,5c2.7,0,5-2.2,5-5C30,22.3,27.7,20,25,20L25,20z M25,20c-2.7,0-5,2.2-5,5c0,2.7,2.2,5,5,5
		c2.7,0,5-2.2,5-5C30,22.3,27.7,20,25,20L25,20z M33.3,11.9H16.7c-2.6,0-4.8,2.2-4.8,4.8v16.6c0,2.6,2.2,4.8,4.8,4.8h16.6
		c2.6,0,4.8-2.2,4.8-4.8V16.7C38.1,14.1,35.9,11.9,33.3,11.9L33.3,11.9z M25,33.6c-4.7,0-8.6-3.9-8.6-8.6c0-4.7,3.9-8.6,8.6-8.6
		c4.7,0,8.6,3.9,8.6,8.6C33.6,29.7,29.7,33.6,25,33.6L25,33.6z M33.9,18.2c-1.1,0-2-0.9-2-2c0-1.1,0.9-2,2-2c1.1,0,2,0.9,2,2
		C35.9,17.3,35,18.2,33.9,18.2L33.9,18.2z M25,20c-2.7,0-5,2.2-5,5c0,2.7,2.2,5,5,5c2.7,0,5-2.2,5-5C30,22.3,27.7,20,25,20L25,20z
		 M25,20"/>
</g>
</svg>
