<?xml version="1.0" encoding="utf-8"?>
<!-- Generator: Adobe Illustrator 22.1.0, SVG Export Plug-In . SVG Version: 6.00 Build 0)  -->
<svg version="1.1" id="Layer_1" xmlns="http://www.w3.org/2000/svg" xmlns:xlink="http://www.w3.org/1999/xlink" x="0px" y="0px"
	 viewBox="0 0 50 50" style="enable-background:new 0 0 50 50;" xml:space="preserve">
<style type="text/css">
	.st0{fill-rule:evenodd;clip-rule:evenodd;fill:#FFFFFF;}
	.st1{fill:#FFFFFF;}
</style>
<g>
	<path class="st1" d="M47.3,0H2.7C1.2,0,0,1.2,0,2.7v44.7C0,48.8,1.2,50,2.7,50h44.7c1.5,0,2.7-1.2,2.7-2.7V2.7
		C50,1.2,48.8,0,47.3,0L47.3,0z M28.2,34.2c-2.6,0-5-1.4-5.8-3c0,0-1.4,5.5-1.7,6.5c-1,3.7-4.1,7.5-4.3,7.8
		c-0.2,0.2-0.5,0.1-0.6-0.1c-0.1-0.5-0.8-5.2,0.1-9c0.5-1.9,3.1-13,3.1-13s-0.8-1.5-0.8-3.8c0-3.5,2-6.2,4.6-6.2
		c2.2,0,3.2,1.6,3.2,3.6c0,2.2-1.4,5.4-2.1,8.4c-0.6,2.5,1.3,4.6,3.8,4.6c4.5,0,7.5-5.8,7.5-12.7c0-5.2-3.5-9.1-9.9-9.1
		c-7.2,0-11.7,5.4-11.7,11.4c0,2.1,0.6,3.5,1.6,4.7c0.4,0.5,0.5,0.7,0.3,1.3c-0.1,0.4-0.4,1.5-0.5,1.9c-0.2,0.6-0.6,0.8-1.2,0.6
		c-3.3-1.4-4.9-5-4.9-9.1c0-6.8,5.7-14.9,17-14.9c9.1,0,15.1,6.6,15.1,13.6C41,27.3,35.8,34.2,28.2,34.2L28.2,34.2z M28.2,34.2"/>
</g>
</svg>
